<svg width="110" height="40" viewBox="0 0 110 40" fill="none" xmlns="http://www.w3.org/2000/svg">
<path d="M36.5896 39.2452V0.580639H46.4414L62.4361 27.6923V0.580639H70.1436V39.2452H60.4077L44.2972 11.9594V39.2452H36.5896Z" fill="black"/>
<path d="M20.2036 39.9999C14.0607 39.9999 9.2314 38.3357 5.71566 35.0072C2.23855 31.6787 0.5 26.9763 0.5 20.8999C0.5 16.6812 1.31132 13.0237 2.93397 9.92748C4.59526 6.79252 6.91333 4.35421 9.88818 2.61256C12.9017 0.870915 16.3981 9.15527e-05 20.3774 9.15527e-05C22.0387 9.15527e-05 23.6421 0.154905 25.1874 0.464532C26.7328 0.774158 28.2203 1.19989 29.6497 1.74174L28.085 9.23082C26.8101 8.65027 25.5352 8.20518 24.2602 7.89556C22.9853 7.58593 21.7103 7.43112 20.4354 7.43112C16.881 7.43112 14.08 8.59222 12.0324 10.9144C10.0234 13.2366 9.01891 16.2942 9.01891 20.0871C9.01891 23.9961 10.1007 27.0343 12.2642 29.2017C14.4277 31.3691 17.4219 32.4528 21.2467 32.4528C22.4058 32.4528 23.6034 32.356 24.8397 32.1625C26.1147 31.9303 27.351 31.6207 28.5486 31.2336L29.8236 38.3744C27.0033 39.4581 23.7966 39.9999 20.2036 39.9999Z" fill="black"/>
<path d="M92.6181 17.9561L94.7279 15.7269C93.7689 9.34029 95.3919 7.91263 97.1625 5.28284C98.9331 2.65304 105.499 -0.427594 108.081 2.27734C110.663 4.98227 109.483 9.94138 106.458 14.1491C104.038 17.5152 99.2527 18.1564 97.1625 18.0562L95.2014 20.6215L108.081 33.9102C108.991 34.8369 110.265 37.1261 108.081 38.8693C105.897 40.6124 103.876 39.0947 103.138 38.1179L92.4524 24.2175L81.5961 38.4184C80.6371 39.0947 78.3648 40.1316 76.9483 38.8693C75.5319 37.607 76.3582 35.438 76.9483 34.5113L89.8705 20.8589L88.2358 18.7324C84.2815 19.2734 81.8666 17.8558 81.1535 17.0794C79.0632 14.1992 74.7646 8.2733 74.2925 7.61209C73.8203 6.95089 74.0957 6.33476 74.2925 6.10934C74.9417 5.44814 75.6942 6.18448 75.9893 6.6353L82.1125 13.6231C82.5798 14.0739 83.6028 14.8704 83.9569 14.4496C84.311 14.0288 83.8093 13.0721 83.5142 12.6463L76.9483 5.28284C76.727 4.85706 76.4172 3.91533 76.9483 3.55467C77.4795 3.19401 78.4484 3.70495 78.8665 4.0055L84.9159 10.4673C85.3094 10.9682 86.2586 11.8498 86.9078 11.369C87.5571 10.8881 86.8341 9.86621 86.3914 9.41539L80.1944 2.87843C79.7517 2.55284 79.0288 1.72132 79.678 1C80.3272 0.278684 81.2272 0.899818 81.5961 1.30055C84.1782 3.3042 89.549 7.94271 90.3752 10.4673C91.2015 12.9919 91.2113 15.4765 91.113 16.4032L92.6181 17.9561Z" fill="black"/>
<path d="M36.5896 39.2452V0.580639H46.4414L62.4361 27.6923V0.580639H70.1436V39.2452H60.4077L44.2972 11.9594V39.2452H36.5896Z" stroke="black"/>
<path d="M20.2036 39.9999C14.0607 39.9999 9.2314 38.3357 5.71566 35.0072C2.23855 31.6787 0.5 26.9763 0.5 20.8999C0.5 16.6812 1.31132 13.0237 2.93397 9.92748C4.59526 6.79252 6.91333 4.35421 9.88818 2.61256C12.9017 0.870915 16.3981 9.15527e-05 20.3774 9.15527e-05C22.0387 9.15527e-05 23.6421 0.154905 25.1874 0.464532C26.7328 0.774158 28.2203 1.19989 29.6497 1.74174L28.085 9.23082C26.8101 8.65027 25.5352 8.20518 24.2602 7.89556C22.9853 7.58593 21.7103 7.43112 20.4354 7.43112C16.881 7.43112 14.08 8.59222 12.0324 10.9144C10.0234 13.2366 9.01891 16.2942 9.01891 20.0871C9.01891 23.9961 10.1007 27.0343 12.2642 29.2017C14.4277 31.3691 17.4219 32.4528 21.2467 32.4528C22.4058 32.4528 23.6034 32.356 24.8397 32.1625C26.1147 31.9303 27.351 31.6207 28.5486 31.2336L29.8236 38.3744C27.0033 39.4581 23.7966 39.9999 20.2036 39.9999Z" stroke="black"/>
<path d="M92.6181 17.9561L94.7279 15.7269C93.7689 9.34029 95.3919 7.91263 97.1625 5.28284C98.9331 2.65304 105.499 -0.427594 108.081 2.27734C110.663 4.98227 109.483 9.94138 106.458 14.1491C104.038 17.5152 99.2527 18.1564 97.1625 18.0562L95.2014 20.6215L108.081 33.9102C108.991 34.8369 110.265 37.1261 108.081 38.8693C105.897 40.6124 103.876 39.0947 103.138 38.1179L92.4524 24.2175L81.5961 38.4184C80.6371 39.0947 78.3648 40.1316 76.9483 38.8693C75.5319 37.607 76.3582 35.438 76.9483 34.5113L89.8705 20.8589L88.2358 18.7324C84.2815 19.2734 81.8666 17.8558 81.1535 17.0794C79.0632 14.1992 74.7646 8.2733 74.2925 7.61209C73.8203 6.95089 74.0957 6.33476 74.2925 6.10934C74.9417 5.44814 75.6942 6.18448 75.9893 6.6353L82.1125 13.6231C82.5798 14.0739 83.6028 14.8704 83.9569 14.4496C84.311 14.0288 83.8093 13.0721 83.5142 12.6463L76.9483 5.28284C76.727 4.85706 76.4172 3.91533 76.9483 3.55467C77.4795 3.19401 78.4484 3.70495 78.8665 4.0055L84.9159 10.4673C85.3094 10.9682 86.2586 11.8498 86.9078 11.369C87.5571 10.8881 86.8341 9.86621 86.3914 9.41539L80.1944 2.87843C79.7517 2.55284 79.0288 1.72132 79.678 1C80.3272 0.278684 81.2272 0.899818 81.5961 1.30055C84.1782 3.3042 89.549 7.94271 90.3752 10.4673C91.2015 12.9919 91.2113 15.4765 91.113 16.4032L92.6181 17.9561Z" stroke="black"/>
</svg>
