<svg width="82" height="30" viewBox="0 0 82 30" fill="none" xmlns="http://www.w3.org/2000/svg">
<path d="M27.15 29.434V0.435413H34.5614L46.5941 20.7692V0.435413H52.3925V29.434H45.0682L32.9483 8.96952V29.434H27.15Z" fill="black"/>
<path d="M14.8229 30C10.2016 30 6.56857 28.7518 3.92371 26.2554C1.3079 23.7591 0 20.2322 0 15.6749C0 12.5109 0.610354 9.76778 1.83106 7.44558C3.08084 5.09434 4.8247 3.2656 7.06267 1.95936C9.3297 0.653121 11.96 0 14.9537 0C16.2034 0 17.4096 0.116111 18.5722 0.348332C19.7348 0.580553 20.8538 0.899856 21.9292 1.30624L20.752 6.92308C19.7929 6.48766 18.8338 6.15385 17.8747 5.92163C16.9155 5.68941 15.9564 5.57329 14.9973 5.57329C12.3233 5.57329 10.2162 6.44412 8.67575 8.18578C7.1644 9.92743 6.40872 12.2206 6.40872 15.0653C6.40872 17.9971 7.22252 20.2758 8.85013 21.9013C10.4777 23.5269 12.7302 24.3396 15.6076 24.3396C16.4796 24.3396 17.3806 24.2671 18.3106 24.1219C19.2698 23.9478 20.1998 23.7155 21.1008 23.4253L22.0599 28.7808C19.9382 29.5936 17.5259 30 14.8229 30Z" fill="black"/>
<path d="M69.2998 13.6158L70.8871 11.944C70.1656 7.15395 71.3866 6.08323 72.7186 4.11088C74.0506 2.13852 78.99 -0.171955 80.9325 1.85676C82.875 3.88547 81.987 7.60477 79.7115 10.7605C77.8912 13.2852 74.2911 13.766 72.7186 13.6909L71.2433 15.6148L80.9325 25.5814C81.617 26.2764 82.5753 27.9933 80.9325 29.3007C79.2897 30.6081 77.7691 29.4698 77.2141 28.7372L69.1752 18.3118L61.0081 28.9626C60.2866 29.4698 58.5772 30.2474 57.5116 29.3007C56.446 28.354 57.0676 26.7272 57.5116 26.0322L67.2328 15.7929L66.0031 14.1981C63.0283 14.6038 61.2116 13.5406 60.6751 12.9583C59.1026 10.7981 55.8688 6.35373 55.5136 5.85782C55.1584 5.36191 55.3656 4.89982 55.5136 4.73076C56.002 4.23485 56.5681 4.78711 56.7901 5.12523L61.3966 10.3661C61.7481 10.7042 62.5177 11.3015 62.7841 10.9859C63.0505 10.6704 62.6731 9.95281 62.4511 9.63347L57.5116 4.11088C57.3451 3.79154 57.112 3.08525 57.5116 2.81475C57.9112 2.54426 58.6401 2.92746 58.9546 3.15287L63.5056 7.99924C63.8016 8.37492 64.5157 9.03613 65.0041 8.67547C65.4925 8.31481 64.9486 7.54841 64.6156 7.21029L59.9536 2.30758C59.6206 2.06338 59.0767 1.43974 59.5651 0.89875C60.0535 0.357761 60.7306 0.823613 61.0081 1.12416C62.9506 2.62691 66.991 6.10577 67.6126 7.99924C68.2342 9.8927 68.2416 11.7561 68.1676 12.4511L69.2998 13.6158Z" fill="#D9D9D9"/>
</svg>
